<svg width="20" height="20" viewBox="0 0 20 20" fill="none" xmlns="http://www.w3.org/2000/svg">
<path d="M2.1875 8.125C2.1875 7.82663 2.28627 7.54048 2.46209 7.3295C2.6379 7.11853 2.87636 7 3.125 7H16.875C17.1236 7 17.3621 7.11853 17.5379 7.3295C17.7137 7.54048 17.8125 7.82663 17.8125 8.125C17.8125 8.42337 17.7137 8.70952 17.5379 8.9205C17.3621 9.13147 17.1236 9.25 16.875 9.25H3.125C2.87636 9.25 2.6379 9.13147 2.46209 8.9205C2.28627 8.70952 2.1875 8.42337 2.1875 8.125ZM3.125 13H13.125C13.3736 13 13.6121 12.8815 13.7879 12.6705C13.9637 12.4595 14.0625 12.1734 14.0625 11.875C14.0625 11.5766 13.9637 11.2905 13.7879 11.0795C13.6121 10.8685 13.3736 10.75 13.125 10.75H3.125C2.87636 10.75 2.6379 10.8685 2.46209 11.0795C2.28627 11.2905 2.1875 11.5766 2.1875 11.875C2.1875 12.1734 2.28627 12.4595 2.46209 12.6705C2.6379 12.8815 2.87636 13 3.125 13Z" fill="#55001F"/>
</svg>
